<svg xmlns="http://www.w3.org/2000/svg" width="22" height="17" viewBox="0 0 22 17">
  <metadata><?xpacket begin="﻿" id="W5M0MpCehiHzreSzNTczkc9d"?>
<x:xmpmeta xmlns:x="adobe:ns:meta/" x:xmptk="Adobe XMP Core 5.6-c142 79.160924, 2017/07/13-01:06:39        ">
   <rdf:RDF xmlns:rdf="http://www.w3.org/1999/02/22-rdf-syntax-ns#">
      <rdf:Description rdf:about=""/>
   </rdf:RDF>
</x:xmpmeta>
                                                                                                    
                                                                                                    
                                                                                                    
                                                                                                    
                                                                                                    
                                                                                                    
                                                                                                    
                                                                                                    
                                                                                                    
                                                                                                    
                                                                                                    
                                                                                                    
                                                                                                    
                                                                                                    
                                                                                                    
                                                                                                    
                                                                                                    
                                                                                                    
                                                                                                    
                                                                                                    
                           
<?xpacket end="w"?></metadata>
<defs>
    <style>
      .cls-1 {
        fill-rule: evenodd;
      }
    </style>
  </defs>
  <path id="Forma_1" data-name="Forma 1" class="cls-1" d="M20.9,0H1.1A1.1,1.1,0,0,0,0,1.109V15.891A1.1,1.1,0,0,0,1.1,17H20.9A1.1,1.1,0,0,0,22,15.891V1.109A1.1,1.1,0,0,0,20.9,0Zm0.367,15.891a0.368,0.368,0,0,1-.367.37H1.1a0.368,0.368,0,0,1-.367-0.37V1.109A0.368,0.368,0,0,1,1.1.739H20.9a0.368,0.368,0,0,1,.367.37V15.891h0ZM20.2,1.48a0.364,0.364,0,0,0-.268.085L11.472,8.727a0.729,0.729,0,0,1-.944,0L2.069,1.565A0.364,0.364,0,0,0,1.708,1.5a0.371,0.371,0,0,0-.11.63l8.459,7.162a1.456,1.456,0,0,0,1.887,0L20.4,2.131a0.372,0.372,0,0,0,.045-0.521A0.365,0.365,0,0,0,20.2,1.48ZM7.052,9.242a0.365,0.365,0,0,0-.354.115L1.565,14.9a0.372,0.372,0,0,0-.089.364A0.366,0.366,0,0,0,2.1,15.4L7.235,9.861A0.372,0.372,0,0,0,7.324,9.5,0.368,0.368,0,0,0,7.052,9.242ZM15.3,9.357a0.366,0.366,0,0,0-.625.141,0.372,0.372,0,0,0,.089.363L19.9,15.4a0.365,0.365,0,0,0,.513.012,0.372,0.372,0,0,0,.024-0.516Z"/>
  <path id="Forma_1-2" data-name="Forma 1" class="cls-1" d="M-157.306,14.322l-2.927-3.3a1.071,1.071,0,0,0-1.446-.139l-1.383,1.057a0.457,0.457,0,0,1-.6-0.03l-0.168-.16A12.271,12.271,0,0,1-166.286,8.5,12.338,12.338,0,0,1-167.9,4.765l-0.056-.225A0.457,0.457,0,0,1-167.694,4l1.6-.684a1.072,1.072,0,0,0,.591-1.328l-1.434-4.172a1.065,1.065,0,0,0-1.307-.678l-1.718.5a2.163,2.163,0,0,0-1.281.988c-1.046,1.807-1.528,5.273,2.12,11.526,2.9,4.973,5.556,6.8,7.571,7.333a5.351,5.351,0,0,0,1.421.182,2.164,2.164,0,0,0,1.49-.629l1.282-1.248A1.065,1.065,0,0,0-157.306,14.322Zm-0.478,1.04-1.28,1.25a1.564,1.564,0,0,1-1.073.456c-1.928.021-4.961-1.214-8.463-7.217S-171.686.6-170.72-1.067a1.567,1.567,0,0,1,.927-0.711l1.718-.5a0.462,0.462,0,0,1,.567.294L-166.73.285l0.653,1.9a0.465,0.465,0,0,1-.255.576l-1.6.684a1.058,1.058,0,0,0-.616,1.241l0.055,0.219a12.847,12.847,0,0,0,1.683,3.9,12.805,12.805,0,0,0,2.566,3.382l0.164,0.156a1.058,1.058,0,0,0,1.384.074l1.382-1.057a0.466,0.466,0,0,1,.628.061l2.926,3.3A0.461,0.461,0,0,1-157.784,15.362Zm-3.872-13.52a5.143,5.143,0,0,1,3.661,6.274,0.3,0.3,0,0,0,.215.369,0.3,0.3,0,0,0,.369-0.215A5.747,5.747,0,0,0-161.5,1.257a0.3,0.3,0,0,0-.369.215A0.3,0.3,0,0,0-161.656,1.841Zm-0.461,1.753a3.329,3.329,0,0,1,2.369,4.06,0.3,0.3,0,0,0,.215.369,0.3,0.3,0,0,0,.369-0.215,3.932,3.932,0,0,0-2.8-4.8,0.3,0.3,0,0,0-.369.215A0.3,0.3,0,0,0-162.117,3.595Zm-0.461,1.753A1.512,1.512,0,0,1-161.5,7.193a0.3,0.3,0,0,0,.216.369,0.3,0.3,0,0,0,.369-0.215,2.118,2.118,0,0,0-1.508-2.583,0.3,0.3,0,0,0-.369.215A0.3,0.3,0,0,0-162.578,5.348Z"/>
</svg>
