<svg xmlns="http://www.w3.org/2000/svg" width="15" height="21" viewBox="0 0 15 21">
  <metadata><?xpacket begin="﻿" id="W5M0MpCehiHzreSzNTczkc9d"?>
<x:xmpmeta xmlns:x="adobe:ns:meta/" x:xmptk="Adobe XMP Core 5.6-c142 79.160924, 2017/07/13-01:06:39        ">
   <rdf:RDF xmlns:rdf="http://www.w3.org/1999/02/22-rdf-syntax-ns#">
      <rdf:Description rdf:about=""/>
   </rdf:RDF>
</x:xmpmeta>
                                                                                                    
                                                                                                    
                                                                                                    
                                                                                                    
                                                                                                    
                                                                                                    
                                                                                                    
                                                                                                    
                                                                                                    
                                                                                                    
                                                                                                    
                                                                                                    
                                                                                                    
                                                                                                    
                                                                                                    
                                                                                                    
                                                                                                    
                                                                                                    
                                                                                                    
                                                                                                    
                           
<?xpacket end="w"?></metadata>
<defs>
    <style>
      .cls-1 {
        fill-rule: evenodd;
      }
    </style>
  </defs>
  <path id="Forma_1" data-name="Forma 1" class="cls-1" d="M192.9,3H173.1A1.1,1.1,0,0,0,172,4.109V18.891A1.1,1.1,0,0,0,173.1,20h19.8a1.1,1.1,0,0,0,1.1-1.109V4.109A1.1,1.1,0,0,0,192.9,3Zm0.367,15.891a0.368,0.368,0,0,1-.367.369H173.1a0.368,0.368,0,0,1-.367-0.369V4.109a0.368,0.368,0,0,1,.367-0.37h19.8a0.368,0.368,0,0,1,.367.37V18.891h0ZM192.2,4.48a0.365,0.365,0,0,0-.268.085l-8.459,7.162a0.729,0.729,0,0,1-.944,0l-8.459-7.162a0.364,0.364,0,0,0-.361-0.064,0.37,0.37,0,0,0-.11.63l8.459,7.162a1.455,1.455,0,0,0,1.886,0L192.4,5.131a0.37,0.37,0,0,0,.045-0.521A0.364,0.364,0,0,0,192.2,4.48Zm-13.147,7.762a0.363,0.363,0,0,0-.353.115L173.565,17.9a0.371,0.371,0,0,0,.183.619A0.364,0.364,0,0,0,174.1,18.4l5.134-5.543A0.37,0.37,0,0,0,179.052,12.242Zm8.249,0.115a0.363,0.363,0,0,0-.353-0.115,0.37,0.37,0,0,0-.183.619L191.9,18.4a0.364,0.364,0,0,0,.512.012,0.372,0.372,0,0,0,.024-0.516Z"/>
  <path id="Forma_1-2" data-name="Forma 1" class="cls-1" d="M14.694,17.322l-2.927-3.3a1.071,1.071,0,0,0-1.446-.139L8.938,14.94a0.457,0.457,0,0,1-.6-0.03l-0.168-.16A12.293,12.293,0,0,1,5.714,11.5,12.342,12.342,0,0,1,4.1,7.765L4.04,7.541A0.457,0.457,0,0,1,4.306,7l1.6-.684A1.072,1.072,0,0,0,6.5,4.991L5.063,0.819A1.065,1.065,0,0,0,3.756.141l-1.719.5a2.164,2.164,0,0,0-1.28.988C-0.289,3.437-.771,6.9,2.877,13.157c2.9,4.973,5.556,6.8,7.571,7.333a5.351,5.351,0,0,0,1.421.182,2.162,2.162,0,0,0,1.49-.629l1.282-1.248A1.066,1.066,0,0,0,14.694,17.322Zm-0.478,1.04-1.281,1.25a1.562,1.562,0,0,1-1.073.456c-1.927.021-4.96-1.214-8.463-7.217S0.314,3.6,1.28,1.933a1.564,1.564,0,0,1,.926-0.711l1.718-.5a0.462,0.462,0,0,1,.567.294L5.27,3.285l0.653,1.9a0.465,0.465,0,0,1-.256.576l-1.6.684a1.058,1.058,0,0,0-.616,1.241L3.506,7.908a12.819,12.819,0,0,0,1.683,3.9,12.829,12.829,0,0,0,2.565,3.382l0.164,0.156a1.058,1.058,0,0,0,1.384.074l1.383-1.057a0.465,0.465,0,0,1,.628.061l2.926,3.3A0.462,0.462,0,0,1,14.216,18.362ZM10.344,4.841A5.142,5.142,0,0,1,14,11.115a0.3,0.3,0,1,0,.584.154A5.747,5.747,0,0,0,10.5,4.257,0.3,0.3,0,0,0,10.344,4.841ZM9.883,6.595a3.327,3.327,0,0,1,2.369,4.06,0.3,0.3,0,0,0,.585.154,3.932,3.932,0,0,0-2.8-4.8A0.3,0.3,0,0,0,9.883,6.595ZM9.422,8.348A1.513,1.513,0,0,1,10.5,10.193a0.3,0.3,0,0,0,.584.154A2.117,2.117,0,0,0,9.575,7.763,0.3,0.3,0,0,0,9.422,8.348Z"/>
</svg>
